<?xml version="1.0" encoding="UTF-8" standalone="no"?>
<!-- Created with Inkscape (http://www.inkscape.org/) -->

<svg
   width="278.26392mm"
   height="71.393921mm"
   viewBox="0 0 278.26392 71.393921"
   version="1.1"
   id="svg5"
   inkscape:version="1.1 (c68e22c387, 2021-05-23)"
   sodipodi:docname="logo2.svg"
   inkscape:export-filename="C:\Users\Laboratoria\Desktop\Кровля лого\logo4.png"
   inkscape:export-xdpi="96"
   inkscape:export-ydpi="96"
   xmlns:inkscape="http://www.inkscape.org/namespaces/inkscape"
   xmlns:sodipodi="http://sodipodi.sourceforge.net/DTD/sodipodi-0.dtd"
   xmlns="http://www.w3.org/2000/svg"
   xmlns:svg="http://www.w3.org/2000/svg">
  <sodipodi:namedview
     id="namedview7"
     pagecolor="#ffffff"
     bordercolor="#666666"
     borderopacity="1.0"
     inkscape:pageshadow="2"
     inkscape:pageopacity="0.0"
     inkscape:pagecheckerboard="0"
     inkscape:document-units="mm"
     showgrid="false"
     inkscape:zoom="0.35355339"
     inkscape:cx="435.57778"
     inkscape:cy="-41.012193"
     inkscape:window-width="1600"
     inkscape:window-height="837"
     inkscape:window-x="-8"
     inkscape:window-y="-8"
     inkscape:window-maximized="1"
     inkscape:current-layer="layer1"
     fit-margin-top="0"
     fit-margin-left="0"
     fit-margin-right="0"
     fit-margin-bottom="0" />
  <defs
     id="defs2" />
  <g
     inkscape:label="Слой 1"
     inkscape:groupmode="layer"
     id="layer1"
     transform="translate(-14.592919,-106.82763)">
    <rect
       style="fill:#ffffff;fill-opacity:1;stroke-width:0.324416"
       id="rect5483"
       width="80"
       height="71.393921"
       x="14.592919"
       y="106.82763"
       inkscape:export-filename="C:\Users\Laboratoria\Desktop\Кровля лого\rect5483.png"
       inkscape:export-xdpi="96"
       inkscape:export-ydpi="96" />
    <path
       style="fill:#67d68e;fill-opacity:1;stroke-width:0.307321"
       d="m 72.712681,149.94348 c -1.43695,-1.43481 -6.76696,-6.71181 -11.84448,-11.72668 l -9.430272,-9.31636 5.285176,0.10114 5.086736,-0.0973 11.53058,11.33765 c 6.34181,6.23573 11.70437,11.5565 11.9168,11.82396 0.32641,0.41099 -0.41277,0.48631 -4.77284,0.48631 h -5.15907 z m -48.711378,2.61694 c 0.06044,-0.0709 4.614805,-4.45068 9.039496,-8.25236 4.424689,-3.80168 9.990338,-8.59129 12.368107,-10.64359 2.377769,-2.05229 4.447238,-3.86783 4.613775,-3.95458 0,0 0.08671,0.15559 0.859005,1.07439 l 0.730919,0.86957 -11.749581,9.89626 -12.798969,11.01518 c -2.71433,-0.005 -0.424152,-9.2e-4 -3.062752,-0.005 z m 25.920578,-3.94694 v -2.14839 h 1.714485 1.714485 v 2.14839 2.1484 h -1.714485 -1.714485 z m 4.484037,0 v -2.14839 h 1.714485 1.714478 v 2.14839 2.1484 h -1.714478 -1.714485 z m -4.484037,-5.72905 v -2.1484 h 1.714485 1.714485 v 2.1484 2.1484 h -1.714485 -1.714485 z m 4.484037,0 v -2.1484 h 1.714485 1.714478 v 2.1484 2.1484 h -1.714478 -1.714485 z"
       id="path21"
       sodipodi:nodetypes="sscccssscscsssscccccccccccccccccccccccccccccccccccccccc" />
    <path
       id="rect1781"
       style="fill:#67d68e;fill-opacity:1;fill-rule:evenodd;stroke-width:0.429144"
       d="m 41.056983,134.06318 0.03633,1.64427 c -0.376585,0.22454 -4.305677,3.44001 -5.101194,3.94032 l -0.109916,-5.57639 c -5.1e-4,-0.0259 1.843556,-0.05 1.872362,-0.0501 l 3.250293,-0.005 c 0.02881,-4e-5 0.05208,0.0208 0.05214,0.0467 z"
       sodipodi:nodetypes="sccsssss" />
    <rect
       style="fill:#67d68e;fill-opacity:1;fill-rule:evenodd;stroke-width:0.264583"
       id="rect3958"
       width="6.6533403"
       height="1.0757599"
       x="34.951847"
       y="132.98723" />
    <rect
       style="fill:#67d68e;fill-opacity:1;stroke-width:0.577192"
       id="rect5379"
       width="266.94058"
       height="1.8520833"
       x="25.916256"
       y="155.75545" />
  </g>
</svg>
